<?xml version="1.0" encoding="UTF-8" standalone="no"?>
<!-- Created with Inkscape (http://www.inkscape.org/) -->

<svg
   width="200"
   height="200"
   viewBox="0 0 52.916665 52.916666"
   version="1.1"
   id="svg5"
   inkscape:version="1.2.2 (732a01da63, 2022-12-09)"
   sodipodi:docname="lentes.svg"
   xmlns:inkscape="http://www.inkscape.org/namespaces/inkscape"
   xmlns:sodipodi="http://sodipodi.sourceforge.net/DTD/sodipodi-0.dtd"
   xmlns="http://www.w3.org/2000/svg"
   xmlns:svg="http://www.w3.org/2000/svg">
  <sodipodi:namedview
     id="namedview7"
     pagecolor="#ffffff"
     bordercolor="#000000"
     borderopacity="0.25"
     inkscape:showpageshadow="2"
     inkscape:pageopacity="0.0"
     inkscape:pagecheckerboard="0"
     inkscape:deskcolor="#d1d1d1"
     inkscape:document-units="mm"
     showgrid="false"
     inkscape:zoom="1.3228492"
     inkscape:cx="122.46294"
     inkscape:cy="69.924826"
     inkscape:window-width="1360"
     inkscape:window-height="706"
     inkscape:window-x="-8"
     inkscape:window-y="-8"
     inkscape:window-maximized="1"
     inkscape:current-layer="layer1" />
  <defs
     id="defs2" />
  <g
     inkscape:label="Capa 1"
     inkscape:groupmode="layer"
     id="layer1">
    <rect
       style="fill:#000000;stroke:#ffff3f;stroke-width:0"
       id="rect286"
       width="28.601461"
       height="3.0001531"
       x="12.800653"
       y="18.800959" />
    <path
       style="fill:#000000;stroke:#ffff3f;stroke-width:0"
       id="path457"
       d="m 43.122593,21.364121 c 0.807746,0.178574 1.628375,0.359797 2.39183,0.688912 0.223827,0.09649 0.436833,0.216356 0.655252,0.324534 -5.312254,-3.242076 -0.766308,-0.242797 0.424304,0.545911 4.644014,2.694633 4.854191,2.810259 0.615513,0.372879 0,0 3.62095,1.399122 3.62095,1.399122 v 0 c -4.564787,-2.648127 -4.788715,-2.780323 -0.677195,-0.387272 -2.30278,-1.422744 -4.410358,-3.139623 -6.906088,-4.256521 -1.058151,-0.470921 -2.172597,-0.863919 -3.326281,-1.013746 0,0 3.201715,2.326181 3.201715,2.326181 z" />
    <path
       style="fill:#000000;stroke:#ffff3f;stroke-width:0"
       id="path459"
       d="m 42.52256,22.564182 c 0.706152,-0.01569 1.409131,0.177145 2.097699,0.321068 0.633471,0.09244 1.243171,0.288748 1.872382,0.400668 0.434872,0.01 0.828228,0.157401 1.231985,0.297663 0.199017,0.06615 0.405773,0.09715 0.61237,0.127318 0,0 -3.133627,-2.368846 -3.133627,-2.368846 v 0 c -0.195321,-0.04714 -0.389618,-0.09758 -0.578485,-0.16716 -0.409467,-0.131748 -0.830803,-0.184144 -1.254562,-0.249508 -0.604305,-0.125764 -1.20592,-0.262753 -1.815237,-0.363711 -0.737878,-0.149816 -1.477545,-0.316659 -2.234237,-0.323673 0,0 3.201712,2.326181 3.201712,2.326181 z" />
    <path
       style="fill:#000000;stroke:#ffff3f;stroke-width:0"
       id="path461"
       d="m 43.543103,21.761647 c 0.523891,-0.06285 1.031444,0.02202 1.546371,0.102774 0.379441,0.04605 0.730908,0.21538 1.08839,0.342872 0.35311,0.19877 0.759314,0.267906 1.100042,0.488871 1.284793,0.564587 2.904085,1.582458 -2.714469,-1.60793 -0.114456,-0.06499 0.215805,0.151193 0.317508,0.234742 0.342881,0.305073 0.610767,0.677046 0.935387,1.000484 0.284824,0.29055 0.6385,0.496623 0.979574,0.712987 0.263155,0.191619 0.489556,0.422234 0.722294,0.647784 0.0468,0.03186 0.0936,0.06372 0.140399,0.09559 0,0 3.672543,1.429798 3.672543,1.429798 v 0 c -0.04636,-0.02799 -0.09271,-0.05598 -0.139067,-0.08396 -0.308578,-0.134653 -0.472517,-0.433411 -0.746535,-0.620739 -0.289415,-0.293611 -0.67904,-0.446282 -1.008481,-0.688193 -0.33479,-0.315822 -0.64162,-0.641942 -0.92312,-1.005293 -1.167496,-1.214543 -2.811246,-1.822175 -4.304099,-2.572912 -0.379508,-0.146023 -0.754661,-0.301906 -1.131829,-0.453118 -0.362572,-0.134666 -0.736664,-0.23348 -1.123128,-0.266567 -0.534172,-0.06768 -1.068919,-0.06614 -1.606626,-0.07838 0,0 3.194846,2.321192 3.194846,2.321192 z" />
    <path
       style="fill:#000000;stroke:#ffff3f;stroke-width:0"
       id="path475"
       d="m 11.718943,20.187288 c 0.749693,0.959106 1.536098,1.883263 2.378725,2.761716 0.936494,0.988173 1.893557,1.956477 2.864652,2.910578 0.286355,0.283682 0.592355,0.54523 0.903672,0.800628 0,0 3.601959,1.433319 3.601959,1.433319 v 0 c -0.348152,-0.24126 -0.676461,-0.504544 -0.992796,-0.786923 -1.002807,-0.944702 -1.98242,-1.912989 -2.923426,-2.919442 -0.803109,-0.829025 -1.574812,-1.683767 -2.230059,-2.637385 0,0 -3.602727,-1.562491 -3.602727,-1.562491 z" />
    <path
       style="fill:#000000;stroke:#ffff3f;stroke-width:0"
       id="path477"
       d="m 18.297722,23.219255 c 0.508518,0.03007 1.019822,0.118511 1.464231,0.375259 -1.050964,-0.598353 -2.09997,-1.200158 -3.152893,-1.795058 -0.0694,-0.03921 0.136807,0.08209 0.202068,0.127847 0.301274,0.21125 0.524105,0.472291 0.737361,0.769092 0.267621,0.447182 0.534995,0.891153 0.827203,1.322851 1.07417,1.21946 2.618002,2.304743 4.219394,2.517033 0.384554,0.03411 0.771232,0.02796 1.156876,0.02614 0.513642,0.04705 0.985869,-0.141387 1.474999,-0.262078 0.480835,-0.112001 0.975645,-0.13302 1.46724,-0.145521 0.420487,-0.0064 0.841044,-0.0028 1.261555,-0.0011 0.349768,-0.0067 0.692721,-0.108473 1.038944,-0.165928 0.41347,-0.134185 0.175647,-0.610293 0.09801,-0.882152 -0.09258,-0.462356 -0.18942,-0.923777 -0.286665,-1.385166 -0.105873,-0.388943 -0.317426,-0.755537 -0.616763,-1.026844 -0.134416,-0.124143 -0.297098,-0.02336 0.06255,-0.08873 0.366181,-0.03353 0.71265,-0.147086 1.077902,-0.197667 0.298186,-0.04444 0.562917,-0.06249 0.827183,0.10414 0.08042,0.05071 0.313658,0.214191 0.230732,0.167685 -1.016762,-0.570222 -2.022541,-1.159808 -3.033813,-1.739712 0.55821,0.360363 1.061038,0.795487 1.598018,1.185678 1.402691,0.964249 2.805414,2.173068 4.457771,2.579141 0.335526,0.01399 0.567923,0.259255 0.870511,0.36261 0.352129,0.08436 0.716986,0.08577 1.077063,0.0916 0.396812,-0.01968 0.785572,-0.124248 1.183894,-0.165122 0.477324,-0.07938 0.967489,-0.144677 1.433817,-0.279134 0.727752,-0.186525 1.474348,-0.267671 2.21008,-0.414316 0.48291,-0.104053 0.975297,-0.132363 1.467533,-0.145343 0.430887,0.0067 0.847256,0.01046 1.267603,-0.08533 0.335711,-0.03541 0.632229,-0.191002 0.961599,-0.256044 0.0404,0.05546 0.452331,-0.166501 0.329657,-0.253991 -1.928836,-1.375632 -7.017348,-4.183663 -0.207362,-0.345603 -0.417525,-0.245905 -0.635481,-0.695943 -0.909002,-1.077283 -1.045459,-1.249163 -1.958859,-1.360871 -3.901247,-2.436841 -0.111125,-0.06156 -0.29755,-0.01289 -0.404117,0.0021 -0.475197,0.04405 -0.947541,0.142726 -1.393618,0.313918 -0.469268,0.242097 -0.975657,0.390079 -1.466313,0.577735 -0.442084,0.119488 -0.860489,0.286215 -1.273569,0.480215 -0.319408,0.09497 -0.608555,0.253334 -0.936641,0.320505 -0.337741,0.0161 -0.647166,0.147556 -0.979085,0.20226 -0.326525,0.06509 -0.635715,0.176813 -0.970545,0.217329 0,0 3.222956,2.263129 3.222956,2.263129 v 0 c 0.329893,-0.06633 0.646567,-0.18111 0.980432,-0.228424 0.331356,-0.078 0.659789,-0.160993 0.994613,-0.222561 0.33011,-0.108165 0.648828,-0.251317 0.969238,-0.384536 0.397113,-0.192023 0.819438,-0.312967 1.232543,-0.465192 0.495075,-0.177118 0.982488,-0.372886 1.474446,-0.557966 0.428461,-0.121877 0.861602,-0.23651 1.312066,-0.18916 1.185587,0.366737 3.783653,2.185562 -2.90254,-1.750018 -0.04855,-0.02858 0.10518,0.04192 0.153167,0.07142 0.136462,0.0839 0.16749,0.140011 0.273117,0.262179 0.36051,0.329939 0.540816,0.793343 0.84869,1.169564 1.178751,0.671476 2.351061,1.354382 3.536249,2.014429 0.03432,0.01911 0.148937,0.04135 0.116187,0.01966 -1.090975,-0.722308 -2.23646,-1.36349 -3.299042,-2.126952 -0.05351,-0.03845 0.08605,-0.101753 0.1143,-0.16128 0.02352,-0.04956 -0.305353,0.199693 -0.158036,0.04599 -0.31383,0.09057 -0.619667,0.203532 -0.946827,0.24107 -0.402299,0.05971 -0.811353,0.01972 -1.216306,0.05201 -0.500491,0.02976 -0.997683,0.08464 -1.48441,0.211025 -0.730163,0.158897 -1.471038,0.262488 -2.200421,0.426201 -0.484679,0.07382 -0.966454,0.163567 -1.453303,0.219815 -0.382169,0.05309 -0.763156,0.14776 -1.151295,0.110395 -0.342413,-0.0228 -0.690901,-0.05205 -0.99837,-0.219151 -0.278935,-0.157466 -0.574572,-0.242645 -0.879692,-0.335533 -1.254575,-0.639627 -0.159004,-0.08449 3.054786,1.780328 0.05656,0.03282 -0.116046,-0.0607 -0.170926,-0.09625 -0.207126,-0.134157 -0.415607,-0.259961 -0.62176,-0.396904 -0.525206,-0.417351 -1.086533,-0.789799 -1.601068,-1.222789 -1.20474,-0.702386 -2.402096,-1.417601 -3.614227,-2.107159 -0.383754,-0.218311 -0.82469,-0.152258 -1.237715,-0.08597 -0.37887,0.06984 -0.758182,0.146554 -1.131241,0.240191 -0.304729,0.138133 -0.695225,0.453406 -0.441938,0.810287 0.434394,0.405608 -0.189719,-0.16134 0.275182,0.209221 0.198067,0.157873 0.308972,0.414516 0.452115,0.616962 0.131689,0.444697 0.199908,0.913489 0.288361,1.36758 0.0042,0.03141 0.07009,0.479723 0.09857,0.482216 0.01129,9.79e-4 0.223487,-0.221751 0.09483,-0.152838 -0.321155,0.07026 -0.643367,0.142425 -0.974556,0.119773 -0.421219,1.8e-4 -0.8427,7.3e-5 -1.263471,0.02215 -0.506287,0.03215 -1.014061,0.0815 -1.504878,0.216584 -0.474305,0.123588 -0.941948,0.216559 -1.435929,0.168307 -0.370086,-0.0051 -0.747864,-0.0031 -1.105068,-0.112622 -1.304975,-0.552498 0.0068,-0.0043 3.087851,1.802104 0.04623,0.02711 -0.102761,-0.03203 -0.150786,-0.05582 -0.165314,-0.0819 -0.258183,-0.236457 -0.422016,-0.320804 -0.354767,-0.387065 -0.610551,-0.850698 -0.872683,-1.302544 -0.999653,-1.723582 -2.404025,-1.945624 -4.415335,-3.096014 -0.507294,-0.162986 -1.031776,-0.230457 -1.552539,-0.334612 0,0 3.154504,2.388416 3.154504,2.388416 z" />
    <path
       style="fill:#000000;stroke:#ffff3f;stroke-width:0"
       id="path479"
       d="m 23.223268,21.199901 c -0.411806,0.255097 -0.853246,0.451455 -1.290569,0.657378 -0.350904,0.192061 -0.750112,0.254211 -1.115032,0.40294 -0.06142,0.02226 -0.230601,0.07908 -0.293584,0.117318 -0.09312,0.05653 -0.334335,0.326313 -0.21623,0.403297 3.234747,2.108501 2.332128,2.37816 3.796364,1.84185 0.564485,-0.120769 1.11621,-0.275443 1.660298,-0.467094 0.41857,-0.176357 0.748275,-0.430959 1.0227,-0.78999 0.08356,-0.142608 0.2369,-0.214441 0.342591,-0.335437 0.898019,-1.028082 -2.611757,-1.981529 -3.33835,-2.407699 -0.398241,0.02537 -0.766005,0.194802 -1.147401,0.29918 -0.446161,0.159872 -0.902366,0.303353 -1.363274,0.417242 -0.398923,0.167475 -0.818462,0.249529 -1.246907,0.288526 -0.395218,0.02632 -0.791615,0.02317 -1.187482,0.02256 -0.05428,-0.01608 -0.108564,-0.03217 -0.162846,-0.04825 0,0 3.153505,2.357008 3.153505,2.357008 v 0 c 0.06295,-1.22e-4 0.125898,-2.45e-4 0.188847,-3.7e-4 0.405459,-0.0034 0.812355,-0.0072 1.214717,-0.06317 0.434685,-0.0714 0.851932,-0.198711 1.268935,-0.339115 0.458359,-0.136029 0.916633,-0.272306 1.372409,-0.416745 0.333211,-0.09883 0.701215,-0.250944 1.034386,-0.07829 -1.09724,-0.65823 -2.231826,-1.257872 -3.291719,-1.974689 -0.05825,-0.03939 0.09159,-0.107308 0.144098,-0.15408 0.03944,-0.03513 -0.0576,0.08931 -0.09409,0.127504 -0.221671,0.232063 -0.06394,0.04872 -0.263104,0.292189 -0.236071,0.289736 -0.540992,0.476512 -0.886744,0.615913 -0.532636,0.193908 -1.083958,0.318093 -1.642806,0.411503 -1.492057,0.03246 0.314291,-0.04022 3.106215,1.92812 0.208984,0.147336 -0.434474,0.360035 -0.06858,0.213634 0.05315,-0.02126 0.107299,-0.03992 0.160949,-0.05987 0.387016,-0.120959 0.76482,-0.262795 1.126849,-0.447442 0.441006,-0.229044 0.89063,-0.440699 1.332627,-0.667906 0,0 -3.316768,-2.146011 -3.316768,-2.146011 z" />
    <path
       style="fill:#ffffff;stroke:#ffff3f;stroke-width:0"
       id="path521"
       d="m 31.258901,20.694011 c -0.446669,0.07856 -0.854548,0.279766 -1.28152,0.422326 -0.251793,0.04257 -0.485703,0.125357 -0.72618,0.207682 0,0 3.26141,2.209209 3.26141,2.209209 v 0 c 0.237477,-0.08104 0.482356,-0.135012 0.718179,-0.221291 0.413505,-0.16046 0.82722,-0.31917 1.274427,-0.355876 0,0 -3.246316,-2.26205 -3.246316,-2.26205 z" />
    <path
       style="fill:#ffffff;stroke:#ffff3f;stroke-width:0"
       id="path523"
       d="m 19.280591,21.438062 c -0.42835,0.08344 -0.83484,0.241488 -1.262124,0.331292 -0.271936,0.03871 -0.530914,0.131703 -0.79958,0.189805 0,0 3.230044,2.233996 3.230044,2.233996 v 0 c 0.265583,-0.06808 0.530403,-0.137755 0.799357,-0.191725 0.404702,-0.109169 0.807356,-0.266505 1.234016,-0.237187 0,0 -3.201713,-2.326181 -3.201713,-2.326181 z" />
    <path
       style="fill:#ffffff;stroke:#ffff3f;stroke-width:0"
       id="path576"
       d="m 19.658311,21.294042 c -0.444701,0.164705 -0.900216,0.312855 -1.360019,0.432938 -0.368523,0.117752 -0.769184,0.183991 -1.125319,0.336603 0,0 3.267654,2.20402 3.267654,2.20402 v 0 c 0.36427,-0.104297 0.719425,-0.235515 1.086921,-0.328609 0.45498,-0.140047 0.908194,-0.296598 1.377077,-0.382902 0,0 -3.246314,-2.26205 -3.246314,-2.26205 z" />
    <path
       style="fill:#000000;stroke:#ffff3f;stroke-width:0"
       id="path578"
       d="m 10.057597,18.341518 c 0.582836,0.43138 0.974285,1.071666 1.383781,1.658992 0.449507,0.619726 0.830189,1.283482 1.220719,1.940682 0.457981,0.853496 1.070158,1.597588 1.67555,2.347975 0.616004,0.716045 1.167654,1.489871 1.845036,2.150301 0.377064,0.331386 0.663723,0.752822 1.046543,1.076484 0.18231,0.161422 0.09209,0.07904 0.270617,0.2472 0,0 3.652689,1.466345 3.652689,1.466345 v 0 c -0.198142,-0.133514 -0.104924,-0.05743 -0.278666,-0.229452 -0.451774,-0.418767 0.19993,0.171516 -0.307722,-0.240419 -0.302166,-0.245195 -0.515422,-0.595413 -0.803422,-0.856245 -0.157448,-0.134726 -0.446458,-0.375261 -0.585431,-0.523113 -0.48031,-0.510989 -0.879152,-1.100691 -1.36388,-1.608655 -0.584725,-0.718684 -1.16952,-1.439584 -1.604815,-2.261788 -0.413216,-0.659241 -0.781981,-1.347209 -1.246294,-1.973572 -0.393429,-0.587644 -0.782737,-1.181834 -1.227298,-1.732285 0,0 -3.677407,-1.46245 -3.677407,-1.46245 z" />
  </g>
</svg>
